#!OML:ASF F:\VICON\USERDATA\INSTALL\rory3\rory3.ASF
:FULLY-SPECIFIED
:DEGREES
10
root 0.8792995383018954 17.798006408883822 -11.033286381180636 -1.6266154577866891 -6.263576475436388 -3.996604882195179
lfemur -24.82899017362671 -5.44173877594605 -16.35930515876405
ltibia 23.104104824255224
lfoot 0.6715145296772231 -2.2987005891470753
ltoes -0.8693690905639619
rfemur 9.249545762688463 5.223774707570522 29.827993713228167
rtibia 38.370500063526045
rfoot -8.245860069399491 3.549092267624875
rtoes -4.758838619417185
lowerback 11.089590777052747 2.2813371872814274 4.033453638379297
upperback 0.15524496856456674 3.611937863222238 1.049334060120541
thorax -5.876972628041631 1.6725775885127705 -1.7375802084570913
lowerneck -16.204401080035264 -3.613389985082555 -1.168772193412932
upperneck 21.537597285149797 -4.692843438838685 -0.17056550187066233
head 9.500278671534216 -2.299109130525867 -0.4675589610470434
lclavicle -4.533851337713565e-16 -7.764982074520073e-16
lhumerus -38.90468821814362 12.793487238550114 77.2804126176462
lradius 18.847612040593347
lwrist -1.4274409974099305
lhand -25.081714739757665 24.43619229331347
lfingers 7.12502
lthumb 1.4326152597692867 54.411092274168816
rclavicle -4.533851337713565e-16 -7.764982074520073e-16
rhumerus -20.8813114633451 -11.868407969126093 -82.36809163942003
rradius 32.037988490974996
rwrist -0.4304878476252121
rhand -19.28028960408154 23.578694726247335
rfingers 7.12502
rthumb 7.034580396811396 -6.284435106396463
11
root 0.9307423261404896 17.847602836923702 -10.153986829977155 -2.421010388649506 -5.628478605336596 -3.1422870498087097
lfemur -23.156591230217607 -4.247862386717545 -18.678101785537056
ltibia 26.865702647169538
lfoot -0.8894676544986018 -3.0670595037662705
ltoes -3.1261798006565304
rfemur 5.914888051349767 3.2069310991543 27.321797482239408
rtibia 46.81529554330594
rfoot 7.191784627804443 6.355887168774117
rtoes 2.7392408272556334
lowerback 10.948192019905274 2.2754672260322386 3.7023044158672596
upperback 0.11406320232504076 3.5410281585631624 0.783917433606239
thorax -5.8471730599522145 1.6443578465933908 -1.8137598863653805
lowerneck -15.592211927836468 -3.7181467900522875 -1.3623592048410842
upperneck 22.00969181621734 -4.834760937671044 -0.04558779629783849
head 9.561766549074028 -2.3673760204868093 -0.4044914171514721
lclavicle -4.53385192121515e-16 -7.764981782575125e-16
lhumerus -38.86728827451859 13.252186462480365 76.65761590256183
lradius 18.101313574168774
lwrist -2.152448937789651
lhand -25.502612842639586 20.802199341575992
lfingers 7.12502
lthumb 1.0261671567087665 50.77949931238479
rclavicle -4.53385192121515e-16 -7.764981782575125e-16
rhumerus -23.127007947663067 -13.95770524815015 -81.70639309790336
rradius 31.750189099377405
rwrist -0.0644614003791375
rhand -19.760785988942224 22.897097415256532
rfingers 7.12502
rthumb 6.5707640130109075 -6.9810023357177196
12
root 0.9867840056140615 17.9152979614862 -9.344287243249711 -2.996596715758429 -6.335526234141595 -2.2343993533420976
lfemur -20.726892765256412 -3.759633863320679 -20.64999891695575
ltibia 29.38700118792717
lfoot -3.7334333462342637 -1.276742032761748
ltoes 0.6201737380275105
rfemur 0.262187930943103 3.3868605289395246 25.115600800088174
rtibia 56.398690413631215
rfoot 21.06897087183617 6.06073770494549
rtoes 7.19253455937514
lowerback 11.22428959309069 2.452436057764478 3.1253457704783267
upperback 0.08995862447171188 3.7063574699618824 0.6447592023285267
thorax -6.04520018977595 1.7351570161993473 -1.6775704621814815
lowerneck -15.715909735949817 -3.4892737705651475 -1.1665822272213533
upperneck 22.563585399691842 -4.46839739449734 -0.4657856804154088
head 9.762069634941644 -2.225912465151019 -0.5452081682809451
lclavicle -4.533852045601174e-16 -7.764982032925819e-16
lhumerus -38.91378820442676 12.453887813115863 77.21981293727674
lradius 19.95220977074556
lwrist -0.4535107641747347
lhand -24.686616520587695 19.70930146129149
lfingers 7.12502
lthumb 1.8142034788537078 49.681301440749365
rclavicle -4.533852045601174e-16 -7.764982032925819e-16
rhumerus -24.38220598262583 -15.175903661641321 -81.29509400446855
rradius 30.496591749458112
rwrist 0.5599711154403457
rhand -18.74999359390125 23.38629548529277
rfingers 7.12502
rthumb 7.54648640567541 -6.459034411907026
13
root 1.005884555542236 17.95249528251611 -8.582117632262742 -3.588412939302274 -6.784474728522472 -0.7819460385718011
lfemur -17.490494809953105 -4.746920877360136 -22.77099583147427
ltibia 29.02520139732466
lfoot -4.858622037350127 0.8697329351360867
ltoes 8.048613909081823
rfemur -5.908243834131052 3.00008175468104 22.7916042950934
rtibia 65.73968541370516
rfoot 19.56617236150762 2.5877440140194317
rtoes 12.956286447063173
lowerback 11.366788340569578 2.525745573808381 1.7771689357922948
upperback 0.39981064164568253 3.608537877383263 0.3719476698046045
thorax -5.866342782109064 1.727317087898566 -1.1921325146388435
lowerneck -16.235600527190776 -3.207712358047695 -1.155102404445408
upperneck 22.786482817558724 -4.068504442249164 -0.4801975426794818
head 9.93769357269278 -2.038451005344697 -0.5133199045176728
lclavicle -4.533851760592334e-16 -7.764982059608898e-16
lhumerus -37.54919026135919 10.228491578247027 78.56970581732232
lradius 21.218207169236155
lwrist 3.0678662322114367
lhand -25.3225136544024 18.445903911697346
lfingers 7.12502
lthumb 1.2001063449147993 48.42230388075209
rclavicle -4.533851760592334e-16 -7.764982059608898e-16
rhumerus -24.399705955229287 -15.857402774097606 -81.30619398000253
rradius 28.598795761362382
rwrist 1.7049847606555435
rhand -18.452695830698165 24.171392387961312
rfingers 7.12502
rthumb 7.833374168920897 -5.6635375760900075
